<svg xmlns="http://www.w3.org/2000/svg" viewBox="0 0 120 120" fill="none">
  <g font-family="JetBrains Mono, ui-monospace, Menlo, monospace" font-weight="900" font-size="11" text-anchor="middle">
    <rect x="14" y="14" width="42" height="42" rx="8" fill="#2a2140" stroke="#e8b34c" stroke-width="2"/>
    <path d="M30 26 L40 36 M30 36 L40 46" stroke="#8FD19E" stroke-width="3" fill="none" stroke-linecap="round"/>
    <text x="20" y="22" fill="#fbf3e7">1</text>
    <rect x="64" y="14" width="42" height="42" rx="8" fill="#2a2140" stroke="#e8b34c" stroke-width="2"/>
    <circle cx="85" cy="35" r="10" fill="none" stroke="#a78bfa" stroke-width="3"/>
    <path d="M85 30 L85 35 L89 38" stroke="#a78bfa" stroke-width="2" fill="none" stroke-linecap="round"/>
    <text x="70" y="22" fill="#fbf3e7">2</text>
    <rect x="14" y="64" width="42" height="42" rx="8" fill="#2a2140" stroke="#e8b34c" stroke-width="2"/>
    <path d="M22 84 L35 74 L48 84 L35 94 Z" fill="none" stroke="#8FD19E" stroke-width="3" stroke-linejoin="round"/>
    <path d="M35 74 L35 94" stroke="#8FD19E" stroke-width="2"/>
    <text x="20" y="72" fill="#fbf3e7">3</text>
    <rect x="64" y="64" width="42" height="42" rx="8" fill="#2a2140" stroke="#e8b34c" stroke-width="2"/>
    <path d="M85 70 L98 76 Q98 92 85 100 Q72 92 72 76 Z" fill="none" stroke="#fbf3e7" stroke-width="3" stroke-linejoin="round"/>
    <text x="70" y="72" fill="#fbf3e7">4</text>
  </g>
</svg>
